<mxfile host="app.diagrams.net" modified="2021-06-24T11:50:55.512Z" agent="5.0 (Windows NT 10.0; Win64; x64) AppleWebKit/537.36 (KHTML, like Gecko) Chrome/91.0.4472.106 Safari/537.36" etag="-oOPIG0tp89PYQ3SGOI0" version="14.5.10" type="github">
  <diagram id="AikCdZ-WhjD60J_H7UAM" name="Страница 1">
    <mxGraphModel dx="1364" dy="753" grid="1" gridSize="10" guides="1" tooltips="1" connect="1" arrows="1" fold="1" page="1" pageScale="1" pageWidth="827" pageHeight="1169" math="0" shadow="0">
      <root>
        <mxCell id="0" />
        <mxCell id="1" parent="0" />
        <mxCell id="RZI_0KJps5jkm5kD7S_W-2" value="target" style="swimlane;" vertex="1" parent="1">
          <mxGeometry x="20" y="150" width="200" height="60" as="geometry">
            <mxRectangle x="20" y="150" width="70" height="23" as="alternateBounds" />
          </mxGeometry>
        </mxCell>
        <mxCell id="RZI_0KJps5jkm5kD7S_W-3" value="создать элемент запуска" style="text;html=1;align=center;verticalAlign=middle;resizable=0;points=[];autosize=1;strokeColor=none;" vertex="1" parent="RZI_0KJps5jkm5kD7S_W-2">
          <mxGeometry x="20" y="30" width="150" height="20" as="geometry" />
        </mxCell>
      </root>
    </mxGraphModel>
  </diagram>
</mxfile>
